<svg xmlns="http://www.w3.org/2000/svg" width="19.99" height="19.998" viewBox="76 425.002 19.99 19.998"><g data-name="vuesax/bulk/home-hashtag"><g data-name="home-hashtag"><g data-name="home-hashtag"><path d="m94.03 429.82-5.75-4.03c-1.57-1.1-3.97-1.04-5.48.13l-5.01 3.91c-1.01.78-1.79 2.38-1.79 3.64v6.9c0 2.55 2.07 4.63 4.61 4.63h10.77a4.62 4.62 0 0 0 4.61-4.62v-6.78c.01-1.35-.86-3.01-1.96-3.78Z" fill="#d0d1d4" fill-rule="evenodd" data-name="Vector"/><path d="M87.4 431.51h-2.8c-1.92 0-3.49 1.56-3.49 3.49v2.79a3.5 3.5 0 0 0 3.49 3.49h2.79c1.92 0 3.49-1.56 3.49-3.49V435c0-1.92-1.56-3.49-3.48-3.49Zm2.09 3.49v.7H86.7v-2.79h.7c1.15 0 2.09.94 2.09 2.09Zm-4.89-2.09h.7v2.79h-2.79v-.7c0-1.15.94-2.09 2.09-2.09Zm-2.09 4.88v-.7h2.79v2.79h-.7c-1.15 0-2.09-.94-2.09-2.09Zm4.89 2.09h-.7v-2.79h2.79v.7c0 1.15-.94 2.09-2.09 2.09Z" fill="#8a8e97" fill-rule="evenodd" data-name="Vector"/></g></g></g></svg>