<svg xmlns="http://www.w3.org/2000/svg" width="14.923" height="18.324" viewBox="78.538 593.833 14.923 18.324"><g data-name="vuesax/bulk/brush"><g data-name="brush"><path d="M89.227 594.658c-.55-.55-1.348-.825-2.374-.825h-5.115c-2.063 0-3.2 1.137-3.2 3.2 0 1.026.275 1.824.825 2.374.55.55 1.348.825 2.375.825h5.115c2.062 0 3.199-1.137 3.199-3.2 0-1.026-.275-1.824-.825-2.374Z" fill="#8a8e97" fill-rule="evenodd" data-name="Vector"/><path d="M84.717 605.768h-.853c-.87 0-1.916.33-1.916 1.916v2.558c0 1.586 1.045 1.916 1.916 1.916h.853c.87 0 1.916-.33 1.916-1.916v-2.558c.009-1.576-1.036-1.916-1.916-1.916Z" fill="#d0d1d4" fill-rule="evenodd" data-name="Vector"/><path d="M90.262 596.39h-.256c.027.202.046.413.046.642 0 .23-.019.44-.046.642h.256c1.916 0 1.916.257 1.916 1.916v1.705c0 1.66 0 1.916-1.916 1.916h-3.41c-2.74 0-3.135 1.301-3.19 2.566.065 0 .138-.009.202-.009h.853c.073 0 .146.01.229.01.046-.926.311-1.293 1.906-1.293h3.41c2.98 0 3.2-1.21 3.2-3.2v-1.695c0-1.99-.22-3.2-3.2-3.2Z" fill="#d0d1d4" fill-rule="evenodd" data-name="Vector"/></g></g></svg>