<svg xmlns="http://www.w3.org/2000/svg" width="18.682" height="18.686" viewBox="76.833 652.48 18.682 18.686"><g data-name="vuesax/bulk/edit"><g data-name="edit"><path d="M89.19 653.75h-7.297c-3.162 0-5.06 1.888-5.06 5.06v7.287c0 3.181 1.898 5.07 5.06 5.07h7.288c3.172 0 5.06-1.889 5.06-5.06v-7.297c.009-3.172-1.888-5.06-5.051-5.06Z" fill="#d0d1d4" fill-rule="evenodd" data-name="Vector"/><g data-name="Group 37485"><path d="M94.69 653.308c-1.085-1.091-2.146-1.116-3.261 0l-.686.679a.221.221 0 0 0-.054.224 4.546 4.546 0 0 0 3.098 3.099.249.249 0 0 0 .067.006c.06 0 .121-.025.163-.067l.673-.68c.552-.55.825-1.078.825-1.618 0-.546-.273-1.085-.825-1.643ZM92.775 657.819a4.846 4.846 0 0 1-.825-.485 3.165 3.165 0 0 1-.315-.243.624.624 0 0 1-.097-.085 4.367 4.367 0 0 1-.576-.582c-.012-.012-.049-.048-.08-.103a2.264 2.264 0 0 1-.23-.309 2.902 2.902 0 0 1-.218-.333 4.78 4.78 0 0 1-.242-.461 5.683 5.683 0 0 1-.194-.48l-3.262 3.263a1.861 1.861 0 0 0-.461.91l-.26 1.806c-.055.382.048.74.284.976.2.2.473.303.776.303.067 0 .134-.006.2-.012l1.801-.255c.297-.042.697-.242.91-.46l3.261-3.262c-.151-.049-.303-.115-.472-.188Z" fill="#8a8e97" fill-rule="evenodd" data-name="Vector"/></g></g></g></svg>