<svg xmlns="http://www.w3.org/2000/svg" width="36" height="36" viewBox="4144 1888.95 36 36"><g data-name="Group 37355"><path d="M4144 1906.9a18 18 0 1 1 0 .1z" fill="#f4f7fe" fill-rule="evenodd" data-name="Ellipse 4"/><g data-name="Menu"><path d="M4160 1902.9a3.5 3 0 1 1 0 .1z" fill="#d0d1d4" fill-rule="evenodd" data-name="Ellipse 133"/><path d="M4161.916 1907.916a4.75 4.75 0 0 0-4.75 4.75c0 .875.71 1.584 1.584 1.584h9.5c.874 0 1.583-.71 1.583-1.584v-.791a3.958 3.958 0 0 0-3.958-3.959h-3.959Z" fill="#d0d1d4" fill-rule="evenodd" data-name="Union"/><path d="M4157.958 1907.916a3.958 3.958 0 0 0-3.958 3.959v.791c0 .875.709 1.584 1.583 1.584h9.5c.874 0 1.583-.71 1.583-1.584v-.791a3.958 3.958 0 0 0-3.958-3.959h-4.75Z" fill="#8a8e97" fill-rule="evenodd" data-name="Union"/><path d="M4157 1902.9a3 3 0 1 1 0 .1z" fill="#8a8e97" fill-rule="evenodd" data-name="Ellipse 132"/></g></g></svg>