<svg xmlns="http://www.w3.org/2000/svg" width="34" height="34" viewBox="780 921.95 34 34"><g data-name="Group 37433"><path d="M780 938.9a17 17 0 1 1 0 .1z" fill="#017efb" fill-rule="evenodd" data-name="Ellipse 128"/><g data-name="vuesax/outline/bank"><g data-name="bank"><path d="M802.718 938.676H790.96a1.149 1.149 0 0 1-1.143-1.143v-2.17c0-.443.307-.894.718-1.058l5.88-2.351c.248-.098.6-.098.849 0l5.88 2.351c.41.164.718.621.718 1.059v2.169c0 .627-.516 1.143-1.144 1.143Zm-5.879-5.82c-.026 0-.052 0-.065.006l-5.873 2.352c-.04.02-.105.104-.105.15v2.169c0 .091.072.163.164.163h11.758a.162.162 0 0 0 .164-.163v-2.17c0-.045-.059-.13-.105-.15l-5.88-2.351c-.012-.007-.032-.007-.058-.007ZM803.372 945.862h-13.065a.494.494 0 0 1-.49-.49v-1.96c0-.627.516-1.143 1.143-1.143h11.758c.628 0 1.144.516 1.144 1.143v1.96c0 .268-.222.49-.49.49Zm-12.576-.98h12.086v-1.47a.162.162 0 0 0-.164-.163H790.96a.162.162 0 0 0-.164.163v1.47Z" fill="#fff" fill-rule="evenodd" data-name="Vector"/><path d="M791.613 943.249a.494.494 0 0 1-.49-.49v-4.573c0-.268.222-.49.49-.49s.49.222.49.49v4.573c0 .268-.222.49-.49.49ZM794.226 943.249a.494.494 0 0 1-.49-.49v-4.573c0-.268.222-.49.49-.49s.49.222.49.49v4.573c0 .268-.222.49-.49.49ZM796.84 943.249a.494.494 0 0 1-.49-.49v-4.573c0-.268.221-.49.49-.49.267 0 .49.222.49.49v4.573c0 .268-.223.49-.49.49ZM799.452 943.249a.494.494 0 0 1-.49-.49v-4.573c0-.268.222-.49.49-.49s.49.222.49.49v4.573c0 .268-.222.49-.49.49ZM802.065 943.249a.494.494 0 0 1-.49-.49v-4.573c0-.268.222-.49.49-.49s.49.222.49.49v4.573c0 .268-.222.49-.49.49ZM804.025 945.862h-14.372a.494.494 0 0 1-.49-.49c0-.268.222-.49.49-.49h14.372c.268 0 .49.222.49.49s-.222.49-.49.49ZM796.84 937.043c-.81 0-1.47-.66-1.47-1.47 0-.81.66-1.47 1.47-1.47.81 0 1.469.66 1.469 1.47 0 .81-.66 1.47-1.47 1.47Zm0-1.96a.494.494 0 0 0-.49.49c0 .268.221.49.49.49.267 0 .49-.222.49-.49a.494.494 0 0 0-.49-.49Z" fill="#fff" fill-rule="evenodd" data-name="Vector"/></g></g></g></svg>