<svg xmlns="http://www.w3.org/2000/svg" width="36" height="36" viewBox="4144 1840.95 36 36"><g data-name="Group 37940"><path d="M4144 1858.9a18 18 0 1 1 0 .1z" fill="#f4f7fe" fill-rule="evenodd" data-name="Ellipse 5"/><g data-name="vuesax/bulk/building"><g data-name="building"><path d="M4162.214 1855.055v11.923h-6.88c-.948 0-1.724-.76-1.724-1.692v-12.127c0-2.14 1.601-3.113 3.554-2.157l3.62 1.79c.785.384 1.43 1.405 1.43 2.263Z" fill="#8a8e97" fill-rule="evenodd" data-name="Vector"/><path d="M4159.33 1856.967h-2.836a.617.617 0 0 1-.613-.613c0-.335.278-.612.613-.612h2.836a.612.612 0 1 1 0 1.226ZM4159.33 1860.236h-2.836a.617.617 0 0 1-.613-.613c0-.335.278-.613.613-.613h2.836a.612.612 0 1 1 0 1.226ZM4169.977 1861.298v3.637a2.044 2.044 0 0 1-2.043 2.043h-5.72v-9.463l.384.082 3.302.735.392.09 1.667.376c.4.082.768.22 1.087.425a1.775 1.775 0 0 1 .245.204c.376.376.621.923.678 1.724 0 .05.008.098.008.147Z" fill="#8a8e97" fill-rule="evenodd" data-name="Vector"/></g></g></g></svg>