<svg xmlns="http://www.w3.org/2000/svg" width="36" height="36" viewBox="4144 1886.95 36 36"><g data-name="Group 37939"><g data-name="Group 37355"><path d="M4144 1904.9a18 18 0 1 1 0 .1z" fill="#f4f7fe" fill-rule="evenodd" data-name="Ellipse 4"/></g><g data-name="vuesax/bulk/brush"><g data-name="brush"><path d="M4165.035 1898.249c-.465-.465-1.14-.698-2.008-.698h-4.327c-1.745 0-2.707.962-2.707 2.706 0 .869.233 1.544.698 2.009.465.465 1.14.698 2.009.698h4.327c1.745 0 2.706-.962 2.706-2.707 0-.868-.232-1.543-.698-2.008Z" fill="#8a8e97" fill-rule="evenodd" data-name="Vector"/><path d="M4161.22 1907.648h-.721c-.737 0-1.621.28-1.621 1.62v2.164c0 1.342.884 1.621 1.62 1.621h.722c.737 0 1.62-.28 1.62-1.62v-2.164c.009-1.334-.876-1.621-1.62-1.621Z" fill="#d0d1d4" fill-rule="evenodd" data-name="Vector"/><path d="M4165.912 1899.715h-.217a3.972 3.972 0 0 1 0 1.086h.217c1.62 0 1.62.216 1.62 1.62v1.442c0 1.404 0 1.621-1.62 1.621h-2.885c-2.319 0-2.652 1.101-2.699 2.172.054 0 .116-.008.17-.008h.722c.062 0 .124.008.194.008.039-.784.264-1.094 1.613-1.094h2.885c2.52 0 2.706-1.023 2.706-2.706v-1.435c0-1.683-.186-2.706-2.706-2.706Z" fill="#d0d1d4" fill-rule="evenodd" data-name="Vector"/></g></g></g></svg>