<svg xmlns="http://www.w3.org/2000/svg" width="45.19" height="45.19" viewBox="4894.57 15.95 45.19 45.19"><g data-name="Group 3"><path d="M4894.57 38.495a22.595 22.595 0 1 1 0 .1z" fill="#32a7e2" fill-rule="evenodd" data-name="background"/><g data-name="vuesax/bold/messages-2"><g data-name="messages-2"><path d="m4924.04 43.83.39 3.16c.1.83-.79 1.41-1.5.98l-3.46-2.06c-.24-.14-.3-.44-.17-.68.5-.92.77-1.96.77-3 0-3.66-3.14-6.64-7-6.64-.79 0-1.56.12-2.28.36a.505.505 0 0 1-.64-.6c.91-3.64 4.41-6.35 8.59-6.35 4.88 0 8.83 3.69 8.83 8.24 0 2.7-1.39 5.09-3.53 6.59Z" fill="#fff" fill-rule="evenodd" data-name="Vector"/><path d="M4918.57 42.23c0 1.19-.44 2.29-1.18 3.16-.99 1.2-2.56 1.97-4.32 1.97l-2.61 1.55c-.44.27-1-.1-.94-.61l.25-1.97c-1.34-.93-2.2-2.42-2.2-4.1 0-1.76.94-3.31 2.38-4.23.89-.58 1.96-.91 3.12-.91 3.04 0 5.5 2.3 5.5 5.14Z" fill="#fff" fill-rule="evenodd" data-name="Vector"/></g></g></g></svg>