<svg xmlns="http://www.w3.org/2000/svg" width="36" height="36" viewBox="4144 1932.95 36 36"><g data-name="Group 37355"><path d="M4144 1950.9a18 18 0 1 1 0 .1z" fill="#f4f7fe" fill-rule="evenodd" data-name="Ellipse 4"/><g data-name="vuesax/bold/receipt-2"><g data-name="receipt-2"><path d="M4166.848 1945.616c0-.007 0-.013-.013-.02a.68.68 0 0 0-.55-.278c-.342 0-.756.227-1.202.705-.53.569-1.344.523-1.81-.097l-.652-.866c-.259-.35-.601-.524-.944-.524-.343 0-.685.175-.944.524l-.66.872c-.458.614-1.266.66-1.796.097l-.006-.006c-.73-.782-1.384-.899-1.752-.427-.013.007-.013.013-.013.02-.233.497-.323 1.196-.323 2.178v6.412c0 .982.09 1.68.323 2.178 0 .007.006.02.013.026.375.466 1.021.35 1.752-.433l.006-.006c.53-.563 1.338-.517 1.797.097l.66.872c.258.35.6.524.943.524.343 0 .685-.175.944-.524l.652-.866c.466-.62 1.28-.666 1.81-.097.446.478.86.705 1.203.705.22 0 .407-.09.549-.272a.049.049 0 0 0 .013-.026c.233-.497.323-1.196.323-2.178v-6.412c0-.982-.09-1.68-.323-2.178Zm-3.555 7h-3.878a.488.488 0 0 1-.485-.485c0-.265.22-.485.485-.485h3.878c.265 0 .485.22.485.485s-.22.485-.485.485Zm1.293-2.262h-5.171a.488.488 0 0 1-.485-.485c0-.265.22-.485.485-.485h5.17c.266 0 .485.22.485.485s-.22.485-.484.485Z" fill="#8a8e97" fill-rule="evenodd" data-name="Vector"/></g></g></g></svg>