<svg xmlns="http://www.w3.org/2000/svg" width="158.034" height="19.962" viewBox="43.863 39.572 158.034 19.962"><g data-name="Group 37467"><g data-name="Group 37287"><g data-name="Group 2675"><g data-name="Group 2670"><g data-name="Group 2669" transform="translate(40 37)" clip-path="url(&quot;#a&quot;)"><g data-name="Path 27556"><path d="M3.863 12.58c0-1.214.194-2.427.58-3.641A9.777 9.777 0 0 1 6.238 5.65C7.92 3.6 10.311 2.572 13.412 2.572c3.102 0 5.493 1.027 7.176 3.078 1.583 1.959 2.374 4.25 2.374 6.876 0 2.662-.791 4.955-2.374 6.877-1.683 2.087-4.074 3.13-7.176 3.13-3.1 0-5.492-1.043-7.175-3.13-1.583-1.888-2.374-4.162-2.374-6.823Zm3.28 0c0 .808.112 1.667.334 2.576.217.909.613 1.75 1.187 2.524 1.143 1.653 2.726 2.48 4.748 2.48 2.123 0 3.706-.827 4.749-2.48.98-1.548 1.468-3.266 1.468-5.154 0-1.952-.489-3.637-1.468-5.055-1.079-1.683-2.662-2.524-4.749-2.524-2.022 0-3.605.841-4.748 2.524-1.014 1.383-1.521 3.087-1.521 5.109Zm19.055 0c0-1.214.193-2.427.58-3.641a9.785 9.785 0 0 1 1.794-3.289c1.683-2.051 4.075-3.078 7.176-3.078 3.1 0 5.492 1.027 7.174 3.078 1.584 1.959 2.375 4.25 2.375 6.876 0 2.662-.791 4.955-2.375 6.877-1.682 2.087-4.073 3.13-7.174 3.13s-5.493-1.043-7.176-3.13c-1.583-1.888-2.374-4.162-2.374-6.823Zm3.28 0c0 .808.111 1.667.334 2.576.217.909.612 1.75 1.187 2.524 1.144 1.653 2.726 2.48 4.749 2.48 2.122 0 3.704-.827 4.748-2.48.979-1.548 1.468-3.266 1.468-5.154 0-1.952-.49-3.637-1.468-5.055-1.08-1.683-2.662-2.524-4.748-2.524-2.023 0-3.605.841-4.75 2.524-1.013 1.383-1.52 3.087-1.52 5.109Zm39.368 7.878L63.543 5.906l-5.364 14.552c-.37 1.114-1.085 1.671-2.146 1.671-1.06 0-1.744-.539-2.049-1.618L48.172 5a1.952 1.952 0 0 1-.097-.58c0-.187.033-.381.097-.58.07-.205.19-.34.361-.405.37-.27.688-.44.958-.51.81 0 1.295.372 1.46 1.118l5.205 14.755L61.52 4.542c.335-1.008 1.04-1.547 2.12-1.617.468 0 .905.117 1.31.35.404.242.71.663.915 1.267l5.055 14.096 5.153-14.596c.235-.746.671-1.117 1.31-1.117.405 0 .75.143 1.037.43.288.287.432.583.432.888 0 .3-.018.552-.053.756l-5.961 15.512c-.335 1.08-.974 1.618-1.918 1.618-1.078 0-1.77-.557-2.074-1.671Zm14.147.255V4.393c0-.44.167-.794.502-1.064.34-.27.677-.404 1.011-.404.71 0 1.163.27 1.363.809.205.539.258 1.348.158 2.427.404-1.015 1.281-1.891 2.63-2.63 1.178-.638 2.347-.959 3.508-.959 1.16 0 2.145.144 2.955.432.808.287 1.55.733 2.224 1.336 1.348 1.278 2.022 3.165 2.022 5.663v10.71c0 .475-.175.83-.527 1.065-.358.234-.721.351-1.09.351a1.62 1.62 0 0 1-1.064-.378c-.3-.253-.45-.598-.45-1.038V9.801c0-1.583-.439-2.796-1.318-3.64-.81-.81-1.82-1.214-3.033-1.214-1.613 0-2.993.472-4.142 1.416-1.144 1.008-1.715 2.558-1.715 4.651v9.7c0 .474-.17.829-.51 1.064a1.891 1.891 0 0 1-1.108.351c-.404 0-.742-.126-1.011-.378-.27-.253-.405-.598-.405-1.038Zm39.368-8.74c0 .709-.405 1.096-1.213 1.16h-13.85c.135 3.436 1.483 5.66 4.045 6.675.703.234 1.512.351 2.427.351 1.882 0 3.802-.692 5.759-2.075.604-.334 1.108-.3 1.513.105.205.2.273.402.202.608 0 .468-.117.805-.352 1.01-1.852 1.853-4.294 2.761-7.325 2.727-2.766 0-4.991-.894-6.674-2.683-1.887-1.852-2.83-4.294-2.83-7.325 0-2.796.776-5.102 2.33-6.92 1.612-2.021 3.9-3.034 6.866-3.034 2.967 0 5.224.891 6.772 2.674 1.483 1.618 2.26 3.86 2.33 6.727Zm-14.957-.915h11.976c-.105-1.817-.697-3.315-1.776-4.493-1.009-1.078-2.457-1.618-4.345-1.618-1.617 0-2.998.606-4.14 1.82-1.044 1.213-1.616 2.644-1.715 4.291Zm36.782.915c0 .709-.405 1.096-1.214 1.16h-13.84c.134 3.436 1.48 5.66 4.035 6.675.71.234 1.52.351 2.427.351 1.888 0 3.808-.692 5.76-2.075.61-.334 1.117-.3 1.522.105.199.2.267.402.202.608 0 .468-.118.805-.353 1.01-1.857 1.853-4.302 2.761-7.333 2.727-2.761 0-4.982-.894-6.665-2.683-1.888-1.852-2.832-4.294-2.832-7.325 0-2.796.774-5.102 2.323-6.92 1.617-2.021 3.909-3.034 6.876-3.034 2.96 0 5.217.891 6.77 2.674 1.483 1.618 2.257 3.86 2.322 6.727Zm-14.957-.915h11.976c-.1-1.817-.69-3.315-1.768-4.493-1.008-1.078-2.456-1.618-4.343-1.618-1.619 0-3.002.606-4.15 1.82-1.045 1.213-1.616 2.644-1.715 4.291Zm0 0" fill="#1dc7da" fill-rule="evenodd"/><path d="M3.863 12.58c0-1.214.194-2.427.58-3.641A9.777 9.777 0 0 1 6.238 5.65C7.92 3.6 10.311 2.572 13.412 2.572c3.102 0 5.493 1.027 7.176 3.078 1.583 1.959 2.374 4.25 2.374 6.876 0 2.662-.791 4.955-2.374 6.877-1.683 2.087-4.074 3.13-7.176 3.13-3.1 0-5.492-1.043-7.175-3.13-1.583-1.888-2.374-4.162-2.374-6.823h0Zm3.28 0c0 .808.112 1.667.334 2.576.217.909.613 1.75 1.187 2.524 1.143 1.653 2.726 2.48 4.748 2.48 2.123 0 3.706-.827 4.749-2.48.98-1.548 1.468-3.266 1.468-5.154 0-1.952-.489-3.637-1.468-5.055-1.079-1.683-2.662-2.524-4.749-2.524-2.022 0-3.605.841-4.748 2.524-1.014 1.383-1.521 3.087-1.521 5.109h0Zm19.055 0c0-1.214.193-2.427.58-3.641a9.785 9.785 0 0 1 1.794-3.289c1.683-2.051 4.075-3.078 7.176-3.078 3.1 0 5.492 1.027 7.174 3.078 1.584 1.959 2.375 4.25 2.375 6.876 0 2.662-.791 4.955-2.375 6.877-1.682 2.087-4.073 3.13-7.174 3.13s-5.493-1.043-7.176-3.13c-1.583-1.888-2.374-4.162-2.374-6.823h0Zm3.28 0c0 .808.111 1.667.334 2.576.217.909.612 1.75 1.187 2.524 1.144 1.653 2.726 2.48 4.749 2.48 2.122 0 3.704-.827 4.748-2.48.979-1.548 1.468-3.266 1.468-5.154 0-1.952-.49-3.637-1.468-5.055-1.08-1.683-2.662-2.524-4.748-2.524-2.023 0-3.605.841-4.75 2.524-1.013 1.383-1.52 3.087-1.52 5.109h0Zm39.368 7.878L63.543 5.906l-5.364 14.552c-.37 1.114-1.085 1.671-2.146 1.671-1.06 0-1.744-.539-2.049-1.618L48.172 5a1.952 1.952 0 0 1-.097-.58c0-.187.033-.381.097-.58.07-.205.19-.34.361-.405.37-.27.688-.44.958-.51.81 0 1.295.372 1.46 1.118l5.205 14.755L61.52 4.542c.335-1.008 1.04-1.547 2.12-1.617.468 0 .905.117 1.31.35.404.242.71.663.915 1.267l5.055 14.096 5.153-14.596c.235-.746.671-1.117 1.31-1.117.405 0 .75.143 1.037.43.288.287.432.583.432.888 0 .3-.018.552-.053.756l-5.961 15.512c-.335 1.08-.974 1.618-1.918 1.618-1.078 0-1.77-.557-2.074-1.671h0Zm14.147.255V4.393c0-.44.167-.794.502-1.064.34-.27.677-.404 1.011-.404.71 0 1.163.27 1.363.809.205.539.258 1.348.158 2.427.404-1.015 1.281-1.891 2.63-2.63 1.178-.638 2.347-.959 3.508-.959 1.16 0 2.145.144 2.955.432.808.287 1.55.733 2.224 1.336 1.348 1.278 2.022 3.165 2.022 5.663v10.71c0 .475-.175.83-.527 1.065-.358.234-.721.351-1.09.351a1.62 1.62 0 0 1-1.064-.378c-.3-.253-.45-.598-.45-1.038V9.801c0-1.583-.439-2.796-1.318-3.64-.81-.81-1.82-1.214-3.033-1.214-1.613 0-2.993.472-4.142 1.416-1.144 1.008-1.715 2.558-1.715 4.651v9.7c0 .474-.17.829-.51 1.064a1.891 1.891 0 0 1-1.108.351c-.404 0-.742-.126-1.011-.378-.27-.253-.405-.598-.405-1.038h0Zm39.368-8.74c0 .709-.405 1.096-1.213 1.16h-13.85c.135 3.436 1.483 5.66 4.045 6.675.703.234 1.512.351 2.427.351 1.882 0 3.802-.692 5.759-2.075.604-.334 1.108-.3 1.513.105.205.2.273.402.202.608 0 .468-.117.805-.352 1.01-1.852 1.853-4.294 2.761-7.325 2.727-2.766 0-4.991-.894-6.674-2.683-1.887-1.852-2.83-4.294-2.83-7.325 0-2.796.776-5.102 2.33-6.92 1.612-2.021 3.9-3.034 6.866-3.034 2.967 0 5.224.891 6.772 2.674 1.483 1.618 2.26 3.86 2.33 6.727h0Zm-14.957-.915h11.976c-.105-1.817-.697-3.315-1.776-4.493-1.009-1.078-2.457-1.618-4.345-1.618-1.617 0-2.998.606-4.14 1.82-1.044 1.213-1.616 2.644-1.715 4.291h0Zm36.782.915c0 .709-.405 1.096-1.214 1.16h-13.84c.134 3.436 1.48 5.66 4.035 6.675.71.234 1.52.351 2.427.351 1.888 0 3.808-.692 5.76-2.075.61-.334 1.117-.3 1.522.105.199.2.267.402.202.608 0 .468-.118.805-.353 1.01-1.857 1.853-4.302 2.761-7.333 2.727-2.761 0-4.982-.894-6.665-2.683-1.888-1.852-2.832-4.294-2.832-7.325 0-2.796.774-5.102 2.323-6.92 1.617-2.021 3.909-3.034 6.876-3.034 2.96 0 5.217.891 6.77 2.674 1.483 1.618 2.257 3.86 2.322 6.727h0Zm-14.957-.915h11.976c-.1-1.817-.69-3.315-1.768-4.493-1.008-1.078-2.456-1.618-4.343-1.618-1.619 0-3.002.606-4.15 1.82-1.045 1.213-1.616 2.644-1.715 4.291h0Zm0 0" stroke-linejoin="round" stroke-linecap="round" stroke="#1dc7da" fill="transparent"/></g></g></g></g></g><g data-name="Group 37466"><path d="M188.89 42.656h3.782v13.797h-3.797l.016-13.797Z" fill="#6d8bc3" fill-rule="evenodd" data-name="Path 27611"/><path d="M193.516 42.656h3.78v13.797H193.5l.016-13.797Z" fill="#92a8d2" fill-rule="evenodd" data-name="Path 27612"/><path d="M198.116 42.656h3.781v13.797H198.1l.016-13.797Z" fill="#b5c4e0" fill-rule="evenodd" data-name="Path 27613"/></g></g><defs><clipPath id="a"><path d="M0 0h146.763v26.393H0V0z" data-name="Rectangle 35"/></clipPath></defs></svg>