<svg xmlns="http://www.w3.org/2000/svg" width="56" height="56" viewBox="1617 833.95 56 56"><g data-name="Group 37333"><path d="M1617 861.9a28 28 0 1 1 0 .1z" fill="#f4f7fe" fill-rule="evenodd" data-name="Ellipse 3"/><path d="M1637.284 858.313h.274c1.053 0 1.916.862 1.916 1.916v9.579a1.921 1.921 0 0 1-1.916 1.916h-.274a1.921 1.921 0 0 1-1.916-1.916v-9.579c0-1.054.862-1.916 1.916-1.916Zm7.663-5.747c1.054 0 1.916.862 1.916 1.916v15.326a1.921 1.921 0 0 1-1.916 1.916 1.921 1.921 0 0 1-1.916-1.916v-15.326c0-1.054.862-1.916 1.916-1.916Zm7.663 10.947c1.054 0 1.916.862 1.916 1.916v4.379a1.921 1.921 0 0 1-1.916 1.916 1.921 1.921 0 0 1-1.916-1.916v-4.379c0-1.054.863-1.916 1.916-1.916Z" fill="#5671ff" fill-rule="evenodd" data-name="Path 27559"/></g></svg>