<svg xmlns="http://www.w3.org/2000/svg" width="34" height="34" viewBox="810 313.95 34 34"><g data-name="Group 37368"><path d="M810 330.9a17 17 0 1 1 0 .1z" fill="#017efb" fill-rule="evenodd" data-name="Ellipse 128"/><g data-name="vuesax/outline/activity"><g data-name="activity"><path d="M829.163 338.75h-4.326c-3.914 0-5.587-1.673-5.587-5.587v-4.326c0-3.914 1.673-5.587 5.587-5.587h4.326c3.914 0 5.587 1.673 5.587 5.587v4.326c0 3.914-1.673 5.587-5.587 5.587Zm-4.326-14.419c-3.323 0-4.506 1.183-4.506 4.506v4.326c0 3.323 1.183 4.506 4.506 4.506h4.326c3.323 0 4.506-1.183 4.506-4.506v-4.326c0-3.323-1.183-4.506-4.506-4.506h-4.326Z" fill="#fff" fill-rule="evenodd" data-name="Vector"/><path d="M822.33 334.242c-.16 0-.32-.05-.46-.16a.749.749 0 0 1-.14-1.05l2.38-3.09c.29-.37.7-.61 1.17-.67.46-.06.93.07 1.3.36l1.83 1.44c.07.06.14.06.19.05.04 0 .11-.02.17-.1l2.31-2.98a.74.74 0 0 1 1.05-.13c.33.25.39.72.13 1.05l-2.31 2.98c-.29.37-.7.61-1.17.66-.47.06-.93-.07-1.3-.36l-1.83-1.44a.22.22 0 0 0-.19-.05c-.04 0-.11.02-.17.1l-2.38 3.09c-.13.2-.35.3-.58.3Z" fill="#fff" fill-rule="evenodd" data-name="Vector"/></g></g></g></svg>