<svg xmlns="http://www.w3.org/2000/svg" width="33.427" height="33.427" viewBox="683.289 1011.787 33.427 33.427"><g data-name="Group 37390"><path d="M700.003 1045.213c9.23 0 16.712-7.482 16.712-16.713 0-9.23-7.482-16.713-16.712-16.713-9.232 0-16.714 7.482-16.714 16.713 0 9.23 7.482 16.713 16.714 16.713Z" fill="#017efb" fill-rule="evenodd" data-name="Path 27591"/><path d="M704.877 1027.804H700.7v-4.178a.696.696 0 1 0-1.393 0v4.178h-4.178a.695.695 0 1 0 0 1.393h4.178v4.178a.696.696 0 1 0 1.393 0v-4.178h4.178a.696.696 0 1 0 0-1.393Z" fill="#fff" fill-rule="evenodd" data-name="Path 27592"/></g></svg>