<svg xmlns="http://www.w3.org/2000/svg" width="45.19" height="45.19" viewBox="277 834.678 45.19 45.19"><g data-name="Group 2"><path d="M277 857.223a22.595 22.595 0 1 1 0 .1z" fill="#ff8700" fill-rule="evenodd" data-name="background"/><g data-name="vuesax/bold/home"><g data-name="home"><path d="m308.83 853.738-6.55-5.24c-1.28-1.02-3.28-1.03-4.55-.01l-6.55 5.25c-.94.75-1.51 2.25-1.31 3.43l1.26 7.54c.29 1.69 1.86 3.02 3.57 3.02h10.6c1.69 0 3.29-1.36 3.58-3.03l1.26-7.54c.18-1.17-.39-2.67-1.31-3.42Zm-8.08 9.99c0 .41-.34.75-.75.75s-.75-.34-.75-.75v-3c0-.41.34-.75.75-.75s.75.34.75.75v3Z" fill="#fff" fill-rule="evenodd" data-name="Vector"/></g></g></g></svg>