<svg xmlns="http://www.w3.org/2000/svg" width="34" height="34" viewBox="386 313.95 34 34"><g data-name="Group 37963"><g data-name="Group 485"><path d="M386 330.9a17 17 0 1 1 0 .1z" fill="#017efb" fill-rule="evenodd" data-name="Ellipse 80"/></g><g data-name="vuesax/outline/graph"><g data-name="graph"><path d="M406.903 331.284h-2.157c-1.618 0-2.436-.916-2.436-2.729v-1.864c0-.663.078-1.612.766-2.132.579-.428 1.41-.46 2.638-.104 1.612.468 2.957 1.813 3.424 3.425.358 1.221.325 2.06-.104 2.631-.52.695-1.468.773-2.13.773Zm-2.625-6.1c-.266 0-.474.051-.61.155-.254.188-.377.63-.377 1.352v1.87c0 1.456.558 1.755 1.462 1.755h2.157c.714 0 1.156-.123 1.351-.377.228-.299.208-.896-.045-1.774-.377-1.28-1.482-2.39-2.762-2.761-.48-.15-.87-.22-1.176-.22Z" fill="#fff" fill-rule="evenodd" data-name="Vector"/><path d="M402.193 337.782c-.345 0-.696-.026-1.046-.085-2.658-.429-4.822-2.586-5.25-5.243-.553-3.418 1.65-6.64 5.022-7.33a.494.494 0 0 1 .578.377.494.494 0 0 1-.376.579c-2.853.585-4.724 3.313-4.25 6.218.364 2.248 2.19 4.074 4.438 4.437 2.917.468 5.64-1.41 6.218-4.275a.487.487 0 1 1 .955.189 6.401 6.401 0 0 1-6.29 5.133Z" fill="#fff" fill-rule="evenodd" data-name="Vector"/></g></g></g></svg>