<svg xmlns="http://www.w3.org/2000/svg" width="45" height="45" viewBox="4144 324.95 45 45"><g data-name="Group 37919"><path d="M4144 347.4a22.5 22.5 0 1 1 0 .1z" fill="#0ddfa4" fill-rule="evenodd" data-name="Ellipse 164"/><g data-name="vuesax/bulk/clipboard-tick"><g data-name="clipboard-tick"><path d="M4171.29 338h-9.357a4.938 4.938 0 0 0-4.933 4.933v10.384a4.945 4.945 0 0 0 4.933 4.933h9.347a4.938 4.938 0 0 0 4.933-4.933v-10.384c.01-2.726-2.208-4.933-4.922-4.933Z" fill="#fff" fill-rule="evenodd" data-name="Vector"/><path d="M4165.48 351.067a.819.819 0 0 1-.585-.243l-1.655-1.655a.833.833 0 0 1 0-1.17c.32-.32.85-.32 1.17 0l1.07 1.07 3.83-3.829c.32-.32.85-.32 1.17 0 .32.32.32.85 0 1.17l-4.415 4.414a.8.8 0 0 1-.585.243Z" fill="#0ddfa4" fill-rule="evenodd" data-name="Vector"/></g></g></g></svg>